<svg xmlns="http://www.w3.org/2000/svg" width="20" height="20" viewBox="0 0 20 20" fill="none">
  <path d="M10 0C4.478 0 0 4.478 0 10C0 15.523 4.478 20 10 20C15.523 20 20 15.523 20 10C20 4.478 15.523 0 10 0ZM13.701 14.077C11.949 14.197 8.048 14.197 6.299 14.077C4.402 13.947 4.181 13.018 4.167 10C4.181 6.976 4.404 6.053 6.299 5.923C8.048 5.803 11.95 5.803 13.701 5.923C15.599 6.053 15.819 6.982 15.834 10C15.819 13.024 15.596 13.947 13.701 14.077ZM8.334 8.048L12.431 9.997L8.334 11.952V8.048Z" fill="white"/>
</svg>